<svg width="32" height="32" viewBox="0 0 32 32" fill="none" xmlns="http://www.w3.org/2000/svg">
<path d="M32 0H0V32H32V0Z" fill="url(#paint0_linear)"/>
<path d="M16.0727 27.2052C15.8889 27.2075 15.7097 27.1587 15.5491 27.0702C14.183 26.2789 4.06398 19.9348 3.67998 19.7416C3.38907 19.6066 3.19125 19.3274 3.15634 19.0085V10.1067C3.14936 9.77392 3.31228 9.46206 3.59155 9.28053L3.66602 9.23864C4.6458 8.63122 7.92261 6.6321 8.44159 6.34351C8.56028 6.27369 8.69526 6.23413 8.8349 6.23413C8.96523 6.23646 9.09089 6.26904 9.20726 6.32722C9.20726 6.32722 13.7943 9.31544 14.4948 9.58308C14.9859 9.80883 15.5235 9.92286 16.0657 9.91355C16.6801 9.92752 17.2852 9.77857 17.8252 9.48533C18.5117 9.1246 22.894 6.34351 22.9405 6.34351C23.0499 6.27602 23.1779 6.24344 23.3059 6.24344C23.4432 6.24344 23.5805 6.283 23.6992 6.35282C24.295 6.68329 28.3584 9.16882 28.5306 9.27821C28.8169 9.45042 28.9891 9.76228 28.9868 10.0951V18.9946C28.9542 19.3134 28.7564 19.5927 28.4631 19.7277C28.0815 19.9371 17.9927 26.2813 16.601 27.0563C16.4358 27.1517 16.2566 27.2029 16.0727 27.2052Z" fill="url(#paint1_linear)"/>
<path d="M16.0184 27.2051H16.0696C16.2535 27.2074 16.4327 27.1585 16.5933 27.0678C17.9594 26.2765 28.0737 19.9323 28.4554 19.7392C28.7486 19.6042 28.9465 19.3272 28.979 19.0061V10.1066C28.9814 9.95531 28.9465 9.80637 28.879 9.67139L16.0161 16.7347V27.2051" fill="url(#paint2_linear)"/>
<path d="M15.9752 27.0798H15.9223C15.7404 27.0821 15.5631 27.0337 15.4042 26.9462C14.0526 26.1634 4.04607 19.8868 3.66847 19.6957C3.37835 19.5622 3.18264 19.2882 3.15041 18.9705V10.1635C3.1481 10.0138 3.18264 9.86645 3.24942 9.73291L15.9752 16.7209V27.0798Z" fill="url(#paint3_linear)"/>
<path d="M9.77783 13.0178H10.9511V18.6599H12.9707V19.7755H9.78424L9.77783 13.0178Z" fill="white"/>
<path d="M15.6891 14.7103C16.311 14.7039 16.9009 14.986 17.2792 15.4733V14.8065H18.3755V19.7817H17.2792V19.115C16.8945 19.6022 16.311 19.8907 15.6891 19.8779C14.3235 19.8779 13.2913 18.711 13.2913 17.2877C13.2913 15.8772 14.3235 14.7103 15.6891 14.7103ZM15.8879 15.7105C15.0031 15.7105 14.4133 16.4093 14.4133 17.3005C14.4133 18.1917 15.0095 18.8906 15.8879 18.8906C16.7662 18.8906 17.3625 18.1917 17.3625 17.3005C17.3625 16.4093 16.7727 15.7105 15.8879 15.7105Z" fill="white"/>
<path d="M19.2283 18.9227L21.8377 15.8068H19.2667V14.813H23.2482V15.6914L20.6516 18.7945H23.3059V19.7882H19.2283V18.9227Z" fill="white"/>
<defs>
<linearGradient id="paint0_linear" x1="15.679" y1="-27.3517" x2="16.0924" y2="28.4619" gradientUnits="userSpaceOnUse">
<stop offset="0.3379" stop-color="#5B8BEB"/>
<stop offset="0.7794" stop-color="#2742A2"/>
<stop offset="1" stop-color="#112283"/>
</linearGradient>
<linearGradient id="paint1_linear" x1="3.22127" y1="16.7901" x2="119.409" y2="15.8902" gradientUnits="userSpaceOnUse">
<stop offset="1e-07" stop-color="#FFB900"/>
<stop offset="0.3376" stop-color="#F38000"/>
<stop offset="0.5673" stop-color="#F83C72"/>
<stop offset="0.78" stop-color="#FC1CBE"/>
<stop offset="0.93" stop-color="#FE08ED"/>
<stop offset="1" stop-color="#FF00FF"/>
</linearGradient>
<linearGradient id="paint2_linear" x1="10.4116" y1="25.1656" x2="128.87" y2="-40.4238" gradientUnits="userSpaceOnUse">
<stop stop-color="#EE0A3F"/>
<stop offset="1" stop-color="#EE0A3F" stop-opacity="0"/>
</linearGradient>
<linearGradient id="paint3_linear" x1="13.1471" y1="20.9039" x2="69.7802" y2="-24.7171" gradientUnits="userSpaceOnUse">
<stop stop-color="#ED6600"/>
<stop offset="1" stop-color="#F98200"/>
</linearGradient>
</defs>
</svg>
