<svg width="65" height="65" viewBox="0 0 65 65" fill="none" xmlns="http://www.w3.org/2000/svg">
<g clip-path="url(#clip0)">
<path d="M35.4819 32.2896L29.8379 39.486L26.8563 35.6847C26.802 35.6153 26.7327 35.5592 26.6535 35.5207C26.5743 35.4821 26.4874 35.462 26.3993 35.462C26.3112 35.462 26.2243 35.4821 26.1451 35.5207C26.0659 35.5592 25.9965 35.6153 25.9422 35.6847L18.7023 44.9124C18.6353 44.9979 18.5937 45.1006 18.5824 45.2086C18.571 45.3167 18.5902 45.4257 18.6379 45.5234C18.6856 45.621 18.7597 45.7032 18.852 45.7607C18.9442 45.8181 19.0507 45.8484 19.1593 45.8482H45.8485C46.3345 45.8482 46.603 45.2896 46.3055 44.9124L36.4032 32.2896C36.3482 32.2201 36.2782 32.164 36.1984 32.1254C36.1186 32.0869 36.0311 32.0668 35.9425 32.0668C35.8539 32.0668 35.7664 32.0869 35.6867 32.1254C35.6069 32.164 35.5369 32.2201 35.4819 32.2896ZM21.4735 27.4219C21.4735 28.1915 21.7792 28.9296 22.3234 29.4737C22.8676 30.0179 23.6057 30.3237 24.3753 30.3237C25.1449 30.3237 25.883 30.0179 26.4272 29.4737C26.9713 28.9296 27.2771 28.1915 27.2771 27.4219C27.2771 26.6523 26.9713 25.9142 26.4272 25.37C25.883 24.8258 25.1449 24.5201 24.3753 24.5201C23.6057 24.5201 22.8676 24.8258 22.3234 25.37C21.7792 25.9142 21.4735 26.6523 21.4735 27.4219ZM57.3541 16.2935L41.7425 0.68192C41.3072 0.246652 40.7196 0 40.103 0H9.286C8.00196 0 6.96457 1.03739 6.96457 2.32143V62.6786C6.96457 63.9626 8.00196 65 9.286 65H55.7146C56.9986 65 58.036 63.9626 58.036 62.6786V17.9403C58.036 17.3237 57.7893 16.7288 57.3541 16.2935ZM52.6822 19.0067H39.0293V5.35379L52.6822 19.0067ZM52.8128 59.7768H12.1878V5.22321H34.0963V20.8929C34.0963 21.7009 34.4173 22.4759 34.9887 23.0473C35.5601 23.6187 36.3351 23.9397 37.1431 23.9397H52.8128V59.7768Z" fill="#FAFAFA"/>
</g>
<defs>
<clipPath id="clip0">
<rect width="65" height="65" fill="white"/>
</clipPath>
</defs>
</svg>
