<svg width="32" height="32" viewBox="0 0 32 32" fill="none" xmlns="http://www.w3.org/2000/svg">
<path d="M16.0052 0C9.32537 0 7.37177 0.00689101 6.99203 0.0383928C5.62121 0.152341 4.7682 0.368177 3.8389 0.830859C3.12272 1.18648 2.55791 1.59871 2.00047 2.17658C0.985278 3.23041 0.370009 4.5269 0.147282 6.06803C0.0389944 6.8162 0.00749261 6.96878 0.00109381 10.7903C-0.00136726 12.0642 0.00109381 13.7407 0.00109381 15.9894C0.00109381 22.6638 0.00847704 24.6154 0.040471 24.9944C0.151219 26.3283 0.360411 27.1676 0.803404 28.0856C1.65001 29.8428 3.26694 31.1619 5.17181 31.6541C5.83138 31.8239 6.55986 31.9174 7.49507 31.9617C7.8913 31.979 11.9299 31.9913 15.971 31.9913C20.0121 31.9913 24.0532 31.9864 24.4396 31.9667C25.5224 31.9157 26.1513 31.8313 26.8465 31.6516C27.791 31.4094 28.6713 30.964 29.4258 30.3463C30.1803 29.7287 30.7909 28.9538 31.2149 28.0757C31.6493 27.1799 31.8696 26.3087 31.9692 25.0444C31.9909 24.7688 32 20.374 32 15.9852C32 11.5956 31.9902 7.20898 31.9685 6.93334C31.8676 5.64866 31.6473 4.78482 31.1989 3.87176C30.831 3.12434 30.4224 2.56616 29.8293 1.99544C28.7711 0.98443 27.4765 0.369161 25.9337 0.14668C25.1863 0.0386389 25.0374 0.0066449 21.2129 0H16.0052Z" fill="url(#paint0_radial)"/>
<path d="M16.0052 0C9.32537 0 7.37177 0.00689101 6.99203 0.0383928C5.62121 0.152341 4.7682 0.368177 3.8389 0.830859C3.12272 1.18648 2.55791 1.59871 2.00047 2.17658C0.985278 3.23041 0.370009 4.5269 0.147282 6.06803C0.0389944 6.8162 0.00749261 6.96878 0.00109381 10.7903C-0.00136726 12.0642 0.00109381 13.7407 0.00109381 15.9894C0.00109381 22.6638 0.00847704 24.6154 0.040471 24.9944C0.151219 26.3283 0.360411 27.1676 0.803404 28.0856C1.65001 29.8428 3.26694 31.1619 5.17181 31.6541C5.83138 31.8239 6.55986 31.9174 7.49507 31.9617C7.8913 31.979 11.9299 31.9913 15.971 31.9913C20.0121 31.9913 24.0532 31.9864 24.4396 31.9667C25.5224 31.9157 26.1513 31.8313 26.8465 31.6516C27.791 31.4094 28.6713 30.964 29.4258 30.3463C30.1803 29.7287 30.7909 28.9538 31.2149 28.0757C31.6493 27.1799 31.8696 26.3087 31.9692 25.0444C31.9909 24.7688 32 20.374 32 15.9852C32 11.5956 31.9902 7.20898 31.9685 6.93334C31.8676 5.64866 31.6473 4.78482 31.1989 3.87176C30.831 3.12434 30.4224 2.56616 29.8293 1.99544C28.7711 0.98443 27.4765 0.369161 25.9337 0.14668C25.1863 0.0386389 25.0374 0.0066449 21.2129 0H16.0052Z" fill="url(#paint1_radial)"/>
<path d="M15.9979 4.18384C12.7896 4.18384 12.387 4.19787 11.1269 4.25521C9.86929 4.3128 9.01087 4.5119 8.25975 4.80403C7.48279 5.10576 6.82371 5.50937 6.16709 6.16623C5.50999 6.82285 5.10637 7.48193 4.80366 8.25864C4.51079 9.01001 4.31144 9.86868 4.25484 11.1258C4.19873 12.3859 4.18396 12.7887 4.18396 15.997C4.18396 19.2053 4.19823 19.6067 4.25533 20.8667C4.31317 22.1243 4.51227 22.9828 4.80415 23.7339C5.10613 24.5108 5.50974 25.1699 6.1666 25.8265C6.82297 26.4836 7.48205 26.8882 8.25852 27.19C9.01013 27.4821 9.8688 27.6812 11.1262 27.7388C12.3862 27.7961 12.7886 27.8102 15.9966 27.8102C19.2051 27.8102 19.6065 27.7961 20.8666 27.7388C22.1242 27.6812 22.9836 27.4821 23.7352 27.19C24.512 26.8882 25.17 26.4836 25.8264 25.8265C26.4835 25.1699 26.8871 24.5108 27.1898 23.7341C27.4803 22.9828 27.6796 22.1241 27.7387 20.867C27.7953 19.6069 27.81 19.2053 27.81 15.997C27.81 12.7887 27.7953 12.3861 27.7387 11.126C27.6796 9.86843 27.4803 9.01001 27.1898 8.25889C26.8871 7.48193 26.4835 6.82285 25.8264 6.16623C25.1693 5.50913 24.5122 5.10551 23.7345 4.80403C22.9814 4.5119 22.1225 4.3128 20.8649 4.25521C19.6048 4.19787 19.2037 4.18384 15.9944 4.18384H15.9979ZM14.9381 6.31267C15.2526 6.31218 15.6036 6.31267 15.9979 6.31267C19.152 6.31267 19.5258 6.32399 20.7714 6.38059C21.9231 6.43326 22.5483 6.62572 22.9647 6.78741C23.516 7.00152 23.909 7.25748 24.3222 7.67094C24.7357 8.0844 24.9916 8.47817 25.2062 9.02945C25.3679 9.44537 25.5606 10.0705 25.613 11.2223C25.6696 12.4676 25.6819 12.8417 25.6819 15.9943C25.6819 19.1469 25.6696 19.521 25.613 20.7663C25.5604 21.9181 25.3679 22.5432 25.2062 22.9591C24.9921 23.5104 24.7357 23.903 24.3222 24.3162C23.9087 24.7296 23.5162 24.9856 22.9647 25.1997C22.5488 25.3621 21.9231 25.5541 20.7714 25.6068C19.5261 25.6634 19.152 25.6757 15.9979 25.6757C12.8435 25.6757 12.4697 25.6634 11.2244 25.6068C10.0726 25.5536 9.44746 25.3611 9.0308 25.1995C8.47952 24.9853 8.08575 24.7294 7.67229 24.3159C7.25883 23.9025 7.00288 23.5097 6.78827 22.9582C6.62658 22.5422 6.43388 21.9171 6.38145 20.7653C6.32485 19.52 6.31353 19.1459 6.31353 15.9913C6.31353 12.8367 6.32485 12.4646 6.38145 11.2193C6.43412 10.0675 6.62658 9.44242 6.78827 9.026C7.00238 8.47472 7.25883 8.08095 7.67229 7.66749C8.08575 7.25403 8.47952 6.99808 9.0308 6.78347C9.44722 6.62104 10.0726 6.42908 11.2244 6.37616C12.3141 6.32694 12.7364 6.31218 14.9381 6.30972V6.31267ZM22.3036 8.27415C22.0232 8.27415 21.7491 8.3573 21.516 8.51309C21.2829 8.66887 21.1012 8.8903 20.9939 9.14935C20.8866 9.40841 20.8586 9.69347 20.9133 9.96846C20.9681 10.2435 21.1031 10.496 21.3014 10.6943C21.4997 10.8925 21.7524 11.0275 22.0274 11.0821C22.3024 11.1368 22.5874 11.1086 22.8465 11.0013C23.1055 10.8939 23.3268 10.7121 23.4825 10.4789C23.6383 10.2457 23.7213 9.97162 23.7212 9.69123C23.7212 8.90861 23.0863 8.27365 22.3036 8.27365V8.27415ZM15.9979 9.93045C12.6476 9.93045 9.93131 12.6467 9.93131 15.997C9.93131 19.3473 12.6476 22.0623 15.9979 22.0623C19.3481 22.0623 22.0637 19.3473 22.0637 15.997C22.0637 12.6467 19.3479 9.93045 15.9976 9.93045H15.9979ZM15.9979 12.0593C18.1725 12.0593 19.9356 13.8221 19.9356 15.997C19.9356 18.1716 18.1725 19.9347 15.9979 19.9347C13.823 19.9347 12.0601 18.1716 12.0601 15.997C12.0601 13.8221 13.823 12.0593 15.9979 12.0593Z" fill="white"/>
<defs>
<radialGradient id="paint0_radial" cx="0" cy="0" r="1" gradientUnits="userSpaceOnUse" gradientTransform="translate(8.50004 34.4553) rotate(-90) scale(31.7057 29.4969)">
<stop stop-color="#FFDD55"/>
<stop offset="0.1" stop-color="#FFDD55"/>
<stop offset="0.5" stop-color="#FF543E"/>
<stop offset="1" stop-color="#C837AB"/>
</radialGradient>
<radialGradient id="paint1_radial" cx="0" cy="0" r="1" gradientUnits="userSpaceOnUse" gradientTransform="translate(-5.36017 2.3046) rotate(78.6776) scale(14.1727 58.4353)">
<stop stop-color="#3771C8"/>
<stop offset="0.128" stop-color="#3771C8"/>
<stop offset="1" stop-color="#6600FF" stop-opacity="0"/>
</radialGradient>
</defs>
</svg>
