<svg width="811" height="585" viewBox="0 0 811 585" fill="none" xmlns="http://www.w3.org/2000/svg">
<path d="M90.9011 295.211C167.337 405.279 -41.2976 421.417 131.627 584.545C131.627 584.545 360.229 583.888 640.885 584.869C640.885 584.869 792.265 516.578 712.094 397.337C598.195 227.932 736.434 225.544 682.514 127.053C586.745 -47.8818 384.049 142.935 265.175 110.237C145.792 72.028 8.23811 165.318 90.9011 295.211Z" fill="#208BFF"/>
<path d="M692.448 231.565L789.398 230.216C789.398 230.216 791.699 218.914 773.65 220.189C773.65 220.189 778.156 207.088 763.632 210.44C763.632 210.44 770.412 193.726 740.998 192.705C711.585 191.684 707.728 206.729 710.501 213.385C710.501 213.385 695.407 211.461 692.198 218.606C688.989 225.751 692.448 231.565 692.448 231.565Z" fill="#008CFF"/>
<path d="M0.138535 123.476C0.138535 123.476 -0.515653 109.304 26.2224 113.004C26.2224 113.004 27.0394 91.7634 55.165 93.2126C83.2905 94.6619 80.8141 106.864 81.3487 112.982C81.3487 112.982 100.779 104.865 102.996 122.101C104.584 134.438 93.9818 136.777 85.6524 136.758L14.1197 136.594C-1.3068 136.558 0.138535 123.476 0.138535 123.476Z" fill="#008CFF"/>
<path d="M140.541 144.417C140.541 144.417 140.301 139.209 150.126 140.569C150.126 140.569 150.427 132.764 160.762 133.296C171.097 133.829 170.187 138.313 170.384 140.561C170.384 140.561 177.524 137.578 178.339 143.912C178.922 148.446 175.026 149.305 171.965 149.298L145.679 149.238C140.01 149.225 140.541 144.417 140.541 144.417Z" fill="white"/>
<path d="M79.9001 406.438L717.934 406.72C717.934 406.72 821.681 585 641.021 585H134.186C-11.4283 585 79.9001 406.438 79.9001 406.438Z" fill="#75B7FF"/>
<path d="M389.321 269.586L416.159 260.303L386.417 163.092L479.212 135.317L483.97 271.875L511.333 259.145L482.781 78.6111L581.524 92.4984L572.007 306.593L588.662 301.964L585.093 203.596L668.37 231.371L633.87 323.952L613.645 407.276L401.883 403.804L116.337 405.598L149.501 296.162L105.924 185.623L193.68 119.905L226.168 235.819L239.02 221.603L230.504 195.008L359.588 134.769L389.321 269.586Z" fill="#007AFF"/>
<path d="M558.617 157.13C558.617 157.13 557.612 134.265 598.667 140.234C598.667 140.234 599.921 105.966 643.106 108.304C686.29 110.643 682.488 130.328 683.309 140.199C683.309 140.199 713.143 127.103 716.547 154.911C718.984 174.816 702.706 178.59 689.917 178.559L580.084 178.293C556.398 178.236 558.617 157.13 558.617 157.13Z" fill="white"/>
<path d="M571.938 96.3466C571.938 96.3466 571.698 91.1386 581.523 92.4983C581.523 92.4983 581.823 84.693 592.159 85.2255C602.494 85.7581 601.584 90.2419 601.781 92.4902C601.781 92.4902 608.921 89.5074 609.736 95.8413C610.319 100.375 606.423 101.235 603.362 101.227L577.076 101.167C571.407 101.154 571.938 96.3466 571.938 96.3466Z" fill="white"/>
<path d="M795.886 488.238H722.085V392.012H760.343C765.779 392.012 770.771 395.011 773.324 399.81L808.866 466.631C814.075 476.424 806.978 488.238 795.886 488.238Z" fill="#FFB8B8"/>
<path d="M590.028 361.302H714.918C718.876 361.302 722.084 364.509 722.084 368.467V488.238H582.863V368.467C582.863 364.509 586.072 361.302 590.028 361.302Z" fill="#133BFF"/>
<path d="M580.409 463.848H722.539V488.413H576.175V468.084C576.175 465.744 578.069 463.848 580.409 463.848Z" fill="#FFB8B8"/>
<path d="M732.16 404.938H755.014C757.954 404.938 760.653 406.567 762.021 409.169L777.718 438.992C778.875 441.191 777.282 443.833 774.797 443.833H733.183L732.16 404.938Z" fill="white"/>
<path d="M731.759 489.037C731.759 470.194 747.035 454.918 765.879 454.918C784.722 454.918 799.998 470.194 799.998 489.037C799.998 507.881 784.722 523.157 765.879 523.157C747.035 523.157 731.759 507.881 731.759 489.037Z" fill="#3CA19C"/>
<path d="M739.266 488.695C739.266 473.809 751.334 461.741 766.22 461.741C781.107 461.741 793.175 473.809 793.175 488.695C793.175 503.582 781.107 515.65 766.22 515.65C751.334 515.65 739.266 503.582 739.266 488.695Z" fill="#133BFF"/>
<path d="M594.598 494.838C594.598 483.342 603.917 474.025 615.412 474.025C626.905 474.025 636.225 483.342 636.225 494.838C636.225 506.331 626.905 515.65 615.412 515.65C603.917 515.65 594.598 506.331 594.598 494.838Z" fill="#133BFF"/>
<path d="M756.989 488.695C756.989 483.597 761.121 479.465 766.22 479.465C771.318 479.465 775.45 483.597 775.45 488.695C775.45 493.794 771.318 497.926 766.22 497.926C761.121 497.926 756.989 493.794 756.989 488.695Z" fill="#FBC8D2"/>
<path d="M607.905 494.838C607.905 490.693 611.266 487.331 615.412 487.331C619.557 487.331 622.917 490.693 622.917 494.838C622.917 498.983 619.557 502.343 615.412 502.343C611.266 502.343 607.905 498.983 607.905 494.838Z" fill="#FBC8D2"/>
<path d="M692.18 413.973C692.18 435.832 674.461 453.553 652.601 453.553C630.744 453.553 613.023 435.832 613.023 413.973C613.023 392.115 630.744 374.396 652.601 374.396C674.461 374.396 692.18 392.115 692.18 413.973Z" fill="#1305FF"/>
<path d="M613.645 407.276C612.16 408.935 610.264 417.779 613.645 418.866C617.025 419.953 619.749 421.212 620.474 424.11C621.199 427.008 623.757 436.932 625.69 439.95C627.622 442.967 632.675 444.136 634.048 439.512C634.941 436.5 634.772 432.992 635.859 431.181C636.944 429.37 633.081 424.783 636.342 423.816C639.601 422.85 643.344 421.161 641.292 418.503C639.239 415.848 636.583 416.935 635.617 413.676C634.652 410.415 633.926 407.88 634.772 407.88C635.617 407.88 635.376 414.4 638.998 415.003C642.62 415.607 644.409 415.544 645.999 412.346C646.344 411.656 641.413 408 642.137 407.276C642.861 406.552 644.431 408.846 647.327 409.087C650.225 409.33 653.001 410.415 653.244 412.468C653.484 414.52 656.025 419.514 657.349 419.35C660.8 418.922 656.503 414.4 658.434 412.83C660.366 411.261 661.212 410.294 663.506 411.865C665.799 413.433 665.919 415.968 665.799 417.659C665.678 419.35 667.11 423.427 668.438 424.754C669.765 426.082 672.198 428.646 674.371 427.559C676.545 426.472 674.13 425.89 672.319 424.672C670.508 423.453 668.697 418.383 670.024 417.659C671.352 416.935 673.889 416.694 672.319 414.52C670.749 412.346 670.991 411.622 672.198 411.019C673.406 410.415 676.302 409.047 676.061 407.136C675.82 405.224 673.406 402.81 674.613 401.843C675.821 400.878 677.632 403.534 678.959 401.843C680.287 400.154 679.683 395.686 678.959 392.669C678.235 389.651 672.319 389.771 673.163 387.718C674.009 385.666 673.285 384.579 670.267 383.251C667.249 381.923 663.867 381.803 660.969 383.251C658.073 384.699 657.106 383.614 654.571 384.338C652.036 385.062 651.794 386.269 650.588 386.873C649.381 387.477 647.69 387.96 645.155 387.597C642.62 387.236 641.17 384.097 638.152 386.753C635.133 389.408 636.703 394.6 631.513 393.876C626.321 393.151 621.974 393.393 621.734 395.808C621.491 398.223 622.941 400.395 620.284 401.602C617.628 402.81 615.697 404.982 613.645 407.276Z" fill="#67CADF"/>
<path d="M638.031 433.595C638.82 431.983 640.566 429.37 641.17 430.336C641.773 431.301 643.223 436.493 641.17 437.338C639.118 438.182 637.347 434.993 638.031 433.595Z" fill="#67CADF"/>
<path d="M672.261 437.13C673.892 435.522 675.4 435.682 677.211 433.508C679.022 431.336 679.868 429.284 681.557 430.008C683.248 430.732 685.059 432.303 686.87 431.216C688.681 430.129 691.181 431.528 690.577 435.754C689.974 439.98 688.133 443.732 686.442 445.906C684.751 448.078 680.47 449.204 679.626 447.272C678.781 445.341 679.022 443.287 677.935 442.443C676.85 441.599 673.348 443.891 672.261 443.408C671.174 442.926 670.594 438.777 672.261 437.13Z" fill="#67CADF"/>
<path d="M673.285 421.644C673.573 421.219 675.095 418.142 676.665 419.107C678.235 420.073 678.235 424.057 676.665 424.66C675.095 425.264 672.302 423.087 673.285 421.644Z" fill="#67CADF"/>
<path d="M684.874 424.764C686.237 424.665 689.918 425.264 690.475 427.679C691.031 430.094 690.307 429.853 689.463 429.249C688.617 428.645 683.018 424.898 684.874 424.764Z" fill="#67CADF"/>
<path d="M77.3199 452.17C79.8368 449.168 95.7529 441.234 95.7529 441.234C95.7529 441.234 90.7015 458.286 88.1848 461.285C85.6679 464.286 81.1948 464.678 78.1933 462.161C75.1917 459.641 74.8006 455.168 77.3199 452.17Z" fill="#FBCAD2"/>
<path d="M156.59 275.937C156.59 279.855 149.5 296.162 149.5 296.162C149.5 296.162 142.408 279.855 142.408 275.937C142.408 272.021 145.582 268.846 149.5 268.846C153.415 268.846 156.59 272.021 156.59 275.937Z" fill="#FBCAD2"/>
<path d="M121.062 279.533C122.402 283.214 121.317 300.966 121.317 300.966C121.317 300.966 109.073 288.066 107.735 284.385C106.395 280.705 108.293 276.636 111.974 275.295C115.654 273.957 119.724 275.853 121.062 279.533Z" fill="#FBCAD2"/>
<path d="M88.9084 295.067C91.4252 298.066 96.4768 315.118 96.4768 315.118C96.4768 315.118 80.5603 307.184 78.0436 304.183C75.5242 301.183 75.9154 296.71 78.9169 294.19C81.9184 291.673 86.3891 292.065 88.9084 295.067Z" fill="#FBCAD2"/>
<path d="M64.8466 319.396C68.2394 321.353 78.8166 335.648 78.8166 335.648C78.8166 335.648 61.1458 333.636 57.7555 331.677C54.3627 329.72 53.2016 325.381 55.1579 321.991C57.1169 318.598 61.4538 317.438 64.8466 319.396Z" fill="#FBCAD2"/>
<path d="M49.3566 353.223C53.2139 353.905 68.0422 363.72 68.0422 363.72C68.0422 363.72 50.7502 367.873 46.8929 367.192C43.0356 366.512 40.4606 362.834 41.1396 358.976C41.8212 355.12 45.4993 352.544 49.3566 353.223Z" fill="#FBCAD2"/>
<path d="M46.7296 388.834C50.5868 388.155 67.8791 392.308 67.8791 392.308C67.8791 392.308 53.0505 402.123 49.1933 402.804C45.336 403.484 41.6581 400.908 40.9766 397.052C40.2975 393.194 42.8723 389.515 46.7296 388.834Z" fill="#FBCAD2"/>
<path d="M106.848 472.252C108.186 468.571 120.429 455.673 120.429 455.673C120.429 455.673 121.514 473.421 120.174 477.101C118.836 480.782 114.767 482.68 111.086 481.34C107.405 480.002 105.507 475.932 106.848 472.252Z" fill="#FBCAD2"/>
<path d="M141.462 481.021C141.462 477.106 148.553 460.798 148.553 460.798C148.553 460.798 155.646 477.106 155.646 481.021C155.646 484.938 152.471 488.114 148.553 488.114C144.637 488.114 141.462 484.938 141.462 481.021Z" fill="#FBCAD2"/>
<path d="M176.99 477.423C175.65 473.743 176.735 455.994 176.735 455.994C176.735 455.994 188.979 468.894 190.317 472.574C191.657 476.255 189.759 480.325 186.078 481.664C182.397 483.003 178.328 481.105 176.99 477.423Z" fill="#FBCAD2"/>
<path d="M248.696 403.736C244.841 403.054 230.01 393.239 230.01 393.239C230.01 393.239 247.302 389.087 251.159 389.766C255.017 390.448 257.592 394.126 256.913 397.983C256.233 401.84 252.553 404.415 248.696 403.736Z" fill="#FBCAD2"/>
<path d="M241.613 333.76C238.22 335.719 220.552 337.731 220.552 337.731C220.552 337.731 231.129 323.436 234.522 321.477C237.912 319.518 242.251 320.681 244.208 324.071C246.167 327.465 245.005 331.802 241.613 333.76Z" fill="#FBCAD2"/>
<path d="M220.734 304.79C218.217 307.791 202.3 315.725 202.3 315.725C202.3 315.725 207.352 298.673 209.868 295.671C212.388 292.672 216.861 292.281 219.86 294.798C222.861 297.315 223.253 301.788 220.734 304.79Z" fill="#FBCAD2"/>
<path d="M191.205 284.708C189.867 288.389 177.624 301.289 177.624 301.289C177.624 301.289 176.539 283.537 177.879 279.857C179.217 276.178 183.286 274.28 186.967 275.618C190.648 276.958 192.546 281.028 191.205 284.708Z" fill="#FBCAD2"/>
<path d="M34.5893 429.442L85.4534 427.635L85.7815 541.803H75.7371C75.7371 541.803 68.1336 485.277 65.2658 454.035H58.3034L56.2107 541.803H46.1661C46.1661 541.803 34.3091 453.676 34.6271 436.687C34.3596 435.418 34.5893 429.442 34.5893 429.442Z" fill="#7776C3"/>
<path d="M85.9201 541.656H75.709V549.489H96.4215C97.7872 549.489 98.2593 546.419 97.0602 545.758L85.9201 541.656Z" fill="#5955AF"/>
<path d="M55.9081 541.656H45.697V549.489H66.4096C67.7778 549.489 68.2473 546.419 67.0482 545.758L55.9081 541.656Z" fill="#5955AF"/>
<path d="M211.253 451.614L210.814 542.184H220.359C220.359 542.184 227.586 488.465 230.31 458.775H236.927L238.916 542.184H248.463C248.463 542.184 257.836 469.021 257.533 452.876C257.788 451.669 211.253 451.614 211.253 451.614Z" fill="#FFB8B8"/>
<path d="M210.684 542.045H220.388V549.489H200.705C199.405 549.489 198.958 546.571 200.097 545.942L210.684 542.045Z" fill="#F1455B"/>
<path d="M239.204 542.045H248.907V549.489H229.225C227.925 549.489 227.478 546.571 228.616 545.942L239.204 542.045Z" fill="#F1455B"/>
<path d="M214.197 425.108L252.485 427.214L275.56 505.298H194.87L214.197 425.108Z" fill="#3BA39B"/>
<path d="M223.703 358.744C224.236 355.542 226.962 330.856 241.839 328.872C257.841 326.739 265.664 332.783 266.732 346.651C267.797 360.521 264.598 368.343 264.598 368.343L223.703 358.744Z" fill="#F0374A"/>
<path d="M67.4741 356.274C66.2372 358.764 69.2337 390.376 80.8257 401.969C87.9773 409.12 134.335 406.005 138.917 405.01C145.44 403.592 155.646 407.306 161.074 401.976C164.625 398.49 164.083 395.236 150.746 397.332C137.412 399.429 139.717 398.849 133.136 398.561C111.712 397.621 94.162 395.844 92.607 392.291C86.7151 378.828 82.7973 366.395 82.7973 366.395L67.4741 356.274Z" fill="#FFB8B8"/>
<path d="M54.8191 361.184L77.4024 390.616L92.1853 379.669L76.726 354.539C75.4916 352.949 72.0002 350.187 70.3644 351.362L54.8191 361.184Z" fill="#F25067"/>
<path d="M82.1939 436.012L40.4 437.205C36.9517 437.69 33.7658 435.288 33.2836 431.841L22.6055 365.672C22.1208 362.226 27.0459 356.932 30.4614 356.275C40.1374 354.415 59.6233 350.283 70.4353 350.361C73.9064 350.389 78.8313 356.059 79.3134 359.504L87.5583 428.896C88.0404 432.344 85.6397 435.529 82.1939 436.012Z" fill="#F0374A"/>
<path d="M40.0044 384.033C39.0527 386.644 49.963 409.717 60.6311 422.165C63.1555 425.108 99.8096 420.725 104.386 421.742C115.746 424.267 128.194 425.532 132.998 419.64C136.143 415.78 138.027 405.143 125.003 408.7C111.982 412.258 113.903 413.812 107.333 413.329C78.7235 411.224 70.7288 413.329 68.626 409.12C63.4232 398.717 53.0175 382.875 53.0175 382.875L40.0044 384.033Z" fill="#FFB8B8"/>
<path d="M40.2946 359.166C49.9604 362.165 59.6667 390.105 59.6667 390.105L40.4914 397.931C40.4914 397.931 28.5787 378.499 27.8593 365.814C27.5715 360.7 35.9728 357.826 40.2946 359.166Z" fill="#F25067"/>
<path d="M56.3848 352.552L43.8361 355.021L39.9814 335.434L52.5301 332.965L56.3848 352.552Z" fill="#FFB8B8"/>
<path d="M59.9738 330.458C58.6738 338.983 50.7093 344.839 42.1844 343.539C33.6595 342.239 27.8029 334.275 29.103 325.75C30.4056 317.225 38.3699 311.368 46.8948 312.668C55.4196 313.968 61.2764 321.933 59.9738 330.458Z" fill="#FFB8B8"/>
<path d="M27.7329 329.635L64.6547 322.789C64.6547 322.789 55.7486 301.93 35.2127 311.278C14.6767 320.623 27.7329 329.635 27.7329 329.635Z" fill="#51C5C4"/>
<path d="M59.4397 323.749C59.4397 323.749 75.4343 327.552 71.1883 332.364C66.9448 337.178 29.1243 329.457 29.1243 329.457L59.4397 323.749Z" fill="#3CA39C"/>
<path d="M69.1606 365.704C69.4509 367.08 68.5676 368.43 67.1917 368.718L58.9696 370.443C57.5938 370.73 56.2434 369.849 55.9556 368.47C55.6653 367.095 56.5489 365.747 57.9247 365.456L66.1465 363.735C67.5248 363.447 68.8728 364.327 69.1606 365.704Z" fill="#5296D0"/>
<path d="M227.131 373.921C228.118 376.286 210.832 409.961 207.045 413.748C201.156 419.64 162.565 415.619 158.407 414.422C152.49 412.721 142.87 415.515 138.2 410.282C135.143 406.856 135.842 403.895 147.987 406.636C160.134 409.377 158.046 408.704 164.12 408.837C183.896 409.279 193.986 408.371 198.21 402.388C203.258 395.236 212.412 382.301 212.412 382.301L227.131 373.921Z" fill="#FFB8B8"/>
<path d="M236.65 377.139L220.504 408.884L201.041 392.947L216.444 371.012C217.583 369.543 220.804 366.996 222.314 368.08L236.65 377.139Z" fill="#6A68BA"/>
<path d="M217.143 430.157C217.143 430.157 241.317 429.591 249.35 430.15C252.551 430.372 255.466 428.381 255.913 425.202L264.599 388.258C266.364 379.624 262.269 373.217 259.116 372.611C250.195 370.895 232.219 367.083 222.248 367.156C219.044 367.179 212.084 383.464 211.968 387.013C211.835 391.123 215.104 400.279 215.82 404.286C216.484 408.011 213.516 419.249 213.516 419.249C213.071 422.43 213.965 429.709 217.143 430.156" fill="#5656AF"/>
<path d="M250.816 397.418C251.472 399.894 236.712 430.66 229.343 433.525C221.77 436.468 198.632 430.157 186.747 428.188C180.673 427.183 171.204 427.178 167.284 421.362C164.716 417.555 165.807 414.715 177.472 419.07C189.137 423.424 182.112 420.788 188.112 421.743C207.649 424.845 219.594 424.028 222.192 421.322C229.621 413.584 238.959 395.27 238.959 395.27L250.816 397.418Z" fill="#FFB8B8"/>
<path d="M250.048 375.279C241.135 378.047 232.181 403.818 232.181 403.818L249.867 411.037C249.867 411.037 260.853 393.114 261.517 381.413C261.784 376.695 254.035 374.042 250.048 375.279Z" fill="#6A68BA"/>
<path d="M235.205 369.177L246.781 371.454L250.338 353.389L238.761 351.109L235.205 369.177Z" fill="#FFB8B8"/>
<path d="M231.896 348.801C233.095 356.664 240.441 362.067 248.304 360.865C256.168 359.665 261.57 352.32 260.371 344.456C259.169 336.593 251.823 331.19 243.96 332.393C236.096 333.592 230.697 340.938 231.896 348.801Z" fill="#FFB8B8"/>
<path d="M179.163 421.685H117.821C113.256 421.685 109.553 417.984 109.553 413.418V349.942C109.553 345.378 113.256 341.674 117.821 341.674H179.163C183.73 341.674 187.431 345.378 187.431 349.942V413.418C187.431 417.984 183.73 421.685 179.163 421.685Z" fill="#51C5C4"/>
<path d="M237.927 332.073C235.082 333.495 229.747 340.962 231.171 341.318C232.592 341.673 253.929 348.076 254.997 348.076C256.064 348.076 258.909 340.253 261.398 339.897C263.887 339.541 263.175 335.272 255.352 332.073C247.529 328.872 237.927 332.073 237.927 332.073Z" fill="#F0374A"/>
<path d="M93.0186 356.419V355.395L207.846 355.177L207.848 356.202L93.0186 356.419Z" fill="white"/>
<path d="M173.62 403.818H164.436C163.636 403.818 162.987 403.169 162.987 402.367V384.481C162.987 383.68 163.636 383.033 164.436 383.033H173.62C174.423 383.033 175.072 383.68 175.072 384.481V402.367C175.072 403.169 174.423 403.818 173.62 403.818Z" fill="#F0374A"/>
<path d="M188.423 185.362L201.47 161.197L354.055 109.141L376.908 121.058L188.423 185.362Z" fill="#133BFF"/>
<path d="M352.356 111.967L202.298 163.161C199.821 164.006 197.106 162.616 196.233 160.055L164.183 66.1125C163.31 63.5527 164.609 60.793 167.086 59.948L317.144 8.75397C319.621 7.90894 322.337 9.2986 323.211 11.8584L355.26 105.801C356.134 108.362 354.833 111.122 352.356 111.967Z" fill="#133BFF"/>
<path opacity="0.99" d="M345.213 110.078L206.799 157.3C204.516 158.079 202.032 156.86 201.252 154.575L172.654 70.7489C171.875 68.464 173.096 65.9809 175.379 65.2018L313.793 17.9804C316.076 17.2013 318.56 18.4205 319.34 20.7054L347.938 104.531C348.718 106.816 347.497 109.299 345.213 110.078Z" fill="#51C5C4"/>
<path d="M320.457 18.1493C319.332 16.8584 317.539 16.3766 315.919 16.9294L269.839 32.65L219.082 49.9663L173.514 65.5124C171.585 66.1704 170.245 67.9292 170.125 69.9642L168.414 98.9297L223.168 80.2499L285.114 59.1161L339.868 40.4363L320.457 18.1493Z" fill="#FFB8B8"/>
<path d="M177.051 106.245L176.942 106.283C173.965 107.298 170.726 105.709 169.711 102.732L168.414 98.93L179.305 95.2143L180.602 99.016C181.618 101.993 180.028 105.23 177.051 106.245Z" fill="#F50057"/>
<path d="M199.735 98.5059L199.616 98.5465C196.366 99.6554 192.908 98.1409 191.892 95.1638L190.595 91.3621L202.486 87.3057L203.783 91.1074C204.798 94.0844 202.986 97.397 199.735 98.5059Z" fill="#F50057"/>
<path d="M222.519 90.7337L222.396 90.7756C219.009 91.9312 215.439 90.4548 214.423 87.4778L213.126 83.6761L225.517 79.449L226.814 83.2507C227.829 86.2278 225.906 89.578 222.519 90.7337Z" fill="#F50057"/>
<path d="M245.651 82.8418L245.524 82.8852C242.082 84.0592 238.47 82.5974 237.454 79.6204L236.157 75.8187L248.746 71.5238L250.043 75.3255C251.059 78.3025 249.092 81.6679 245.651 82.8418Z" fill="#F50057"/>
<path d="M268.855 74.9253L268.73 74.9677C265.357 76.1186 261.8 74.6379 260.784 71.6609L259.487 67.8592L271.826 63.6496L273.123 67.4513C274.139 70.4283 272.227 73.7748 268.855 74.9253Z" fill="#F50057"/>
<path d="M291.685 67.1367L291.562 67.1786C288.188 68.3295 284.63 66.8494 283.614 63.8723L282.317 60.0706L294.658 55.8605L295.955 59.6623C296.97 62.6393 295.058 65.9858 291.685 67.1367Z" fill="#F50057"/>
<path d="M314.789 59.2543L314.667 59.2957C311.363 60.4231 307.859 58.9241 306.844 55.947L305.547 52.1453L317.637 48.0205L318.934 51.8223C319.95 54.7993 318.093 58.1269 314.789 59.2543Z" fill="#F50057"/>
<path d="M337.515 51.5011L337.403 51.5393C334.343 52.5832 331.04 51.0159 330.024 48.0388L328.727 44.2371L339.917 40.4196L341.214 44.2213C342.23 47.1984 340.573 50.4577 337.515 51.5011Z" fill="#F50057"/>
<path d="M188.142 102.461L188.029 102.5C184.943 103.553 181.618 101.993 180.602 99.0159L179.305 95.2142L190.596 91.3623L191.893 95.164C192.908 98.141 191.229 101.408 188.142 102.461Z" fill="#F6F2EB"/>
<path d="M210.994 94.6652L210.888 94.7015C207.98 95.6935 204.798 94.0847 203.783 91.1077L202.486 87.306L213.126 83.6761L214.423 87.4778C215.438 90.4548 213.904 93.6726 210.994 94.6652Z" fill="#F6F2EB"/>
<path d="M234.051 86.7991L233.943 86.8359C231.008 87.8374 227.804 86.2361 226.788 83.2591L225.491 79.4573L236.232 75.793L237.529 79.5947C238.545 82.5718 236.988 85.7971 234.051 86.7991Z" fill="#F6F2EB"/>
<path d="M257.331 78.8567L257.223 78.8935C254.287 79.895 251.084 78.2937 250.068 75.3167L248.771 71.515L259.512 67.8506L260.809 71.6524C261.825 74.6294 260.268 77.8547 257.331 78.8567Z" fill="#F6F2EB"/>
<path d="M280.236 71.0427L280.131 71.0785C277.263 72.0569 274.114 70.4368 273.099 67.4597L271.802 63.658L282.292 60.079L283.589 63.8807C284.605 66.8577 283.103 70.0643 280.236 71.0427Z" fill="#F6F2EB"/>
<path d="M303.317 63.1678L303.208 63.2051C300.204 64.2301 296.945 62.6477 295.929 59.6707L294.632 55.869L305.621 52.1198L306.918 55.9215C307.934 58.8985 306.322 62.1428 303.317 63.1678Z" fill="#F6F2EB"/>
<path d="M326.398 55.2936L326.286 55.3318C323.228 56.3752 319.925 54.8079 318.909 51.8308L317.612 48.0291L328.802 44.2116L330.099 48.0133C331.115 50.9904 329.458 54.2497 326.398 55.2936Z" fill="#F6F2EB"/>
<path d="M264.309 81.8309L253.518 85.5122L237.838 39.5516L248.629 35.8703L264.309 81.8309Z" fill="white"/>
<path d="M238.974 88.8456L227.763 90.9245L218.535 43.4599L229.001 41.1167L238.974 88.8456Z" fill="white"/>
<path d="M214.367 95.0987L202.999 95.9772L200.101 47.2952L209.513 47.0947L214.367 95.0987Z" fill="white"/>
<path d="M277.682 75.6397L287.826 70.4333L264.828 27.4441L256.247 32.0436L277.682 75.6397Z" fill="white"/>
<path d="M324.718 57.2657L333.582 50.0945L303.043 12.3387L295.048 18.9185L324.718 57.2657Z" fill="white"/>
<path d="M190.58 103.028L179.181 102.77L180.278 54.2212L190.627 54.5432L190.58 103.028Z" fill="white"/>
<path d="M300.981 65.5489L310.515 59.2967L283.098 19.2032L274.35 24.9422L300.981 65.5489Z" fill="white"/>
<path d="M244.832 36.8076C245.15 37.7373 244.652 38.7475 243.722 39.0646C242.794 39.3813 241.783 38.8858 241.466 37.9561C241.149 37.0264 241.646 36.0162 242.574 35.6995C243.504 35.3823 244.515 35.8778 244.832 36.8076Z" fill="#FBCAD2"/>
<path d="M262.649 122.927L279.729 117.1C281.83 116.383 282.956 114.091 282.24 111.991L282.221 111.935C281.504 109.833 279.212 108.708 277.111 109.424L260.031 115.252C259.481 115.439 259.187 116.038 259.374 116.587C259.562 117.137 260.16 117.431 260.71 117.244L277.79 111.416C278.793 111.074 279.886 111.611 280.229 112.614L280.248 112.671C280.59 113.672 280.053 114.767 279.05 115.109L261.97 120.936C261.42 121.124 261.126 121.722 261.314 122.272C261.501 122.822 262.099 123.114 262.649 122.927Z" fill="white"/>
<path d="M279.526 110.805C279.846 110.695 280.072 110.387 280.059 110.031L279.389 90.9921L250.269 100.927L259.426 116.985C259.641 117.363 260.125 117.496 260.503 117.281C260.881 117.064 261.013 116.582 260.797 116.203L252.586 101.805L277.886 93.1735L278.482 110.086C278.498 110.522 278.862 110.863 279.298 110.847L279.526 110.805Z" fill="white"/>
<path d="M278.893 92.8298C279.2 92.7252 279.422 92.4365 279.427 92.094L279.5 86.8518L283.269 85.5661C283.68 85.4256 283.9 84.9758 283.76 84.5642C283.619 84.1511 283.17 83.9309 282.759 84.0714L277.936 85.7167L277.848 92.0728C277.843 92.5081 278.191 92.8657 278.627 92.8728L278.893 92.8298Z" fill="white"/>
<path d="M283.443 86.0617L287.487 84.6822C288.173 84.448 288.541 83.7008 288.307 83.0129C288.072 82.3249 287.323 81.9572 286.637 82.1915L282.593 83.5709C281.907 83.8052 281.539 84.5537 281.774 85.2416C282.009 85.9296 282.757 86.2959 283.443 86.0617Z" fill="white"/>
<path d="M278.15 122.167C278.795 124.058 280.851 125.069 282.742 124.423C284.633 123.778 285.642 121.722 284.997 119.831C284.352 117.941 282.297 116.93 280.406 117.576C278.514 118.221 277.506 120.277 278.15 122.167Z" fill="white"/>
<path d="M262.048 127.66C262.693 129.551 264.748 130.562 266.64 129.917C268.531 129.271 269.54 127.215 268.894 125.324C268.25 123.434 266.194 122.424 264.303 123.069C262.412 123.714 261.403 125.77 262.048 127.66Z" fill="white"/>
<path d="M279.976 121.543C280.278 122.426 281.236 122.898 282.119 122.597C283.001 122.296 283.472 121.336 283.17 120.454C282.87 119.572 281.911 119.1 281.029 119.402C280.146 119.703 279.676 120.662 279.976 121.543Z" fill="#5296D0"/>
<path d="M263.707 127.094C264.009 127.976 264.968 128.448 265.851 128.147C266.734 127.845 267.204 126.886 266.903 126.003C266.602 125.122 265.644 124.65 264.761 124.951C263.878 125.253 263.407 126.212 263.707 127.094Z" fill="#5296D0"/>
<path d="M275.949 111.568C276.304 111.447 276.533 111.082 276.473 110.697L273.918 94.5196C273.849 94.0894 273.445 93.7955 273.015 93.8636C272.585 93.9317 272.291 94.3358 272.358 94.7664L274.913 110.944C274.981 111.374 275.385 111.668 275.816 111.602L275.949 111.568Z" fill="white"/>
<path d="M272.1 112.51C272.49 112.377 272.715 111.962 272.607 111.558L268.449 96.112C268.335 95.6914 267.903 95.441 267.482 95.5552C267.06 95.6666 266.811 96.1018 266.925 96.5225L271.083 111.968C271.196 112.389 271.629 112.638 272.05 112.525L272.1 112.51" fill="white"/>
<path d="M264.409 115.505L264.522 115.456C264.907 115.252 265.056 114.774 264.852 114.39L257.235 99.9379C257.033 99.5521 256.555 99.4049 256.169 99.6075C255.784 99.8115 255.635 100.289 255.839 100.673L263.456 115.126C263.639 115.473 264.047 115.629 264.409 115.505Z" fill="white"/>
<path d="M268.28 113.813L268.317 113.799C268.721 113.638 268.92 113.18 268.758 112.774L262.858 97.9241C262.698 97.5176 262.232 97.3201 261.834 97.4808C261.428 97.6424 261.231 98.1012 261.391 98.5063L267.292 113.357C267.447 113.75 267.884 113.948 268.28 113.813" fill="white"/>
<path d="M255.142 106.806L279.045 98.6508C279.458 98.5098 279.678 98.0615 279.537 97.6484C279.396 97.2353 278.948 97.0151 278.535 97.156L254.632 105.311C254.219 105.452 253.998 105.9 254.139 106.313C254.28 106.726 254.729 106.946 255.142 106.806Z" fill="white"/>
<path d="M257.784 111.834L278.866 104.641C279.278 104.501 279.498 104.053 279.357 103.64C279.216 103.227 278.769 103.008 278.357 103.148L257.275 110.341C256.862 110.481 256.641 110.928 256.782 111.341C256.923 111.755 257.371 111.975 257.784 111.834Z" fill="white"/>
<path d="M372.042 138.401L202.873 196.115C197.539 197.935 191.74 195.086 189.921 189.753L188.423 185.362L376.908 121.058L378.406 125.448C380.226 130.782 377.377 136.581 372.042 138.401Z" fill="#133AFF"/>
<path d="M244.774 148.614C245.091 149.544 244.596 150.555 243.666 150.872L224.592 157.38C223.663 157.697 222.652 157.199 222.335 156.27C222.018 155.341 222.514 154.33 223.444 154.013L242.517 147.506C243.447 147.189 244.457 147.686 244.774 148.614Z" fill="#FBCAD2"/>
<path d="M335.09 117.802C335.407 118.732 334.912 119.743 333.982 120.06L314.908 126.568C313.98 126.884 312.968 126.387 312.651 125.458C312.335 124.529 312.832 123.518 313.76 123.201L332.833 116.694C333.763 116.377 334.773 116.874 335.09 117.802Z" fill="#FBCAD2"/>
<path d="M259.645 158.245L263.934 150.302L296.451 139.209L303.961 143.125L259.645 158.245Z" fill="white"/>
<path d="M284.409 139.963L273.896 143.55L273.704 142.989L284.217 139.402L284.409 139.963Z" fill="white"/>
<path d="M211.53 173.244L199.751 177.263L199.559 176.702L211.339 172.683L211.53 173.244Z" fill="white"/>
<path d="M217.654 162.738L207.141 166.324L206.95 165.763L217.462 162.177L217.654 162.738Z" fill="white"/>
<path d="M214.34 167.708L203.825 171.295L203.634 170.733L214.148 167.146L214.34 167.708Z" fill="white"/>
<path d="M238.129 155.752L227.616 159.338L227.425 158.778L237.938 155.191L238.129 155.752Z" fill="white"/>
<path d="M233.973 161.01L223.46 164.597L223.268 164.034L233.781 160.448L233.973 161.01Z" fill="white"/>
<path d="M249.396 160.326L237.616 164.344L237.425 163.783L249.205 159.765L249.396 160.326Z" fill="white"/>
<path d="M258.043 148.958L247.529 152.545L247.338 151.984L257.852 148.397L258.043 148.958Z" fill="white"/>
<path d="M253.888 154.216L243.375 157.802L243.183 157.24L253.696 153.653L253.888 154.216Z" fill="white"/>
<path d="M230.891 167.578L219.11 171.597L218.919 171.036L230.699 167.017L230.891 167.578Z" fill="white"/>
<path d="M364.956 120.901L353.175 124.92L352.984 124.359L364.765 120.34L364.956 120.901Z" fill="white"/>
<path d="M352.421 116.76L341.908 120.347L341.717 119.786L352.23 116.199L352.421 116.76Z" fill="white"/>
<path d="M358.083 118.668L347.57 122.255L347.378 121.693L357.891 118.106L358.083 118.668Z" fill="white"/>
<path d="M331.945 123.745L321.432 127.332L321.241 126.771L331.754 123.185L331.945 123.745Z" fill="white"/>
<path d="M338.448 125.367L327.936 128.954L327.744 128.391L338.257 124.805L338.448 125.367Z" fill="white"/>
<path d="M327.091 133.819L315.31 137.838L315.119 137.277L326.9 133.258L327.091 133.819Z" fill="white"/>
<path d="M312.031 130.539L301.519 134.125L301.327 133.565L311.84 129.978L312.031 130.539Z" fill="white"/>
<path d="M318.534 132.161L308.021 135.748L307.829 135.185L318.342 131.599L318.534 132.161Z" fill="white"/>
<path d="M346.17 128.249L334.39 132.268L334.199 131.707L345.978 127.688L346.17 128.249Z" fill="white"/>
<path d="M40.2323 189.143C40.2323 189.143 39.5781 174.971 66.3162 178.671C66.3162 178.671 67.1332 157.431 95.2588 158.88C123.384 160.329 120.908 172.531 121.443 178.649C121.443 178.649 140.873 170.532 143.09 187.768C144.677 200.106 134.076 202.445 125.746 202.426L54.2134 202.261C38.7869 202.226 40.2323 189.143 40.2323 189.143Z" fill="white"/>
<path d="M63.0402 212.56C63.0402 212.56 63.2188 207.696 55.9195 208.966C55.9195 208.966 55.6965 201.676 48.0185 202.173C40.3404 202.67 41.0165 206.858 40.8706 208.958C40.8706 208.958 35.5663 206.172 34.961 212.088C34.5277 216.322 37.4219 217.125 39.6957 217.119L59.2235 217.062C63.4348 217.05 63.0402 212.56 63.0402 212.56Z" fill="#008CFF"/>
<path d="M311.432 430.001C311.432 425.355 319.842 406.014 319.842 406.014C319.842 406.014 328.255 425.355 328.255 430.001C328.255 434.645 324.488 438.412 319.842 438.412C315.198 438.412 311.432 434.645 311.432 430.001Z" fill="#5955AF"/>
<path d="M320.264 528.343C320.076 528.343 319.923 528.191 319.923 528.003V427.901C319.923 427.713 320.076 427.56 320.264 427.56C320.453 427.56 320.606 427.713 320.606 427.901V528.003C320.606 528.191 320.453 528.343 320.264 528.343Z" fill="#FBCAD2"/>
<path d="M301.572 501.751C298.286 498.467 290.557 478.842 290.557 478.842C290.557 478.842 310.182 486.571 313.466 489.857C316.75 493.141 316.75 498.467 313.466 501.751C310.182 505.035 304.856 505.035 301.572 501.751Z" fill="#5955AF"/>
<path d="M301.572 464.466C298.286 461.182 290.557 441.557 290.557 441.557C290.557 441.557 310.182 449.288 313.466 452.572C316.75 455.856 316.75 461.182 313.466 464.466C310.182 467.752 304.856 467.752 301.572 464.466Z" fill="#5955AF"/>
<path d="M340.578 501.751C343.864 498.467 351.593 478.842 351.593 478.842C351.593 478.842 331.968 486.571 328.684 489.857C325.398 493.141 325.398 498.467 328.684 501.751C331.968 505.035 337.294 505.035 340.578 501.751Z" fill="#5955AF"/>
<path d="M340.578 464.466C343.864 461.182 351.593 441.557 351.593 441.557C351.593 441.557 331.968 449.288 328.684 452.572C325.398 455.856 325.398 461.182 328.684 464.466C331.968 467.752 337.294 467.752 340.578 464.466Z" fill="#5955AF"/>
<path d="M306.587 515.034H334.754C336.296 515.034 337.477 516.412 337.237 517.936L333.16 544.111C332.968 545.336 331.914 546.238 330.674 546.238H310.666C309.425 546.238 308.37 545.336 308.18 544.111L304.101 517.936C303.863 516.412 305.042 515.034 306.587 515.034Z" fill="#F0374A"/>
<path d="M319.84 474.198L304.199 456.088L304.234 455.608L304.717 455.641L319.877 473.195L336.638 456.434H337.122V456.917L319.84 474.198Z" fill="#FBCAD2"/>
<path d="M319.84 509.426L304.62 493.793L304.625 493.309L305.11 493.316L319.877 508.484L337.06 493.298L337.542 493.329L337.511 493.809L319.84 509.426Z" fill="#FBCAD2"/>
<path d="M417.145 467.356C417.145 463.187 424.693 445.828 424.693 445.828C424.693 445.828 432.242 463.187 432.242 467.356C432.242 471.524 428.862 474.905 424.693 474.905C420.525 474.905 417.145 471.524 417.145 467.356Z" fill="#F0374A"/>
<path d="M425.071 555.815C424.791 555.815 424.563 555.588 424.563 555.308V465.471C424.563 465.191 424.791 464.964 425.071 464.964C425.351 464.964 425.578 465.191 425.578 465.471V555.308C425.578 555.588 425.351 555.815 425.071 555.815Z" fill="#FBCAD2"/>
<path d="M408.295 531.748C405.347 528.801 398.41 511.19 398.41 511.19C398.41 511.19 416.022 518.126 418.969 521.073C421.917 524.021 421.917 528.801 418.969 531.748C416.022 534.697 411.242 534.697 408.295 531.748Z" fill="#F0374A"/>
<path d="M408.295 498.287C405.347 495.338 398.41 477.728 398.41 477.728C398.41 477.728 416.022 484.664 418.969 487.613C421.917 490.559 421.917 495.338 418.969 498.287C416.022 501.234 411.242 501.234 408.295 498.287Z" fill="#F0374A"/>
<path d="M443.302 531.748C446.25 528.801 453.188 511.19 453.188 511.19C453.188 511.19 435.576 518.126 432.628 521.073C429.68 524.021 429.68 528.801 432.628 531.748C435.576 534.697 440.355 534.697 443.302 531.748Z" fill="#F0374A"/>
<path d="M443.302 498.287C446.25 495.338 453.188 477.728 453.188 477.728C453.188 477.728 435.576 484.664 432.628 487.613C429.68 490.559 429.68 495.338 432.628 498.287C435.576 501.234 440.355 501.234 443.302 498.287Z" fill="#F0374A"/>
<path d="M412.795 543.669H438.075C439.459 543.669 440.518 544.905 440.304 546.275L436.644 569.765C436.472 570.864 435.526 571.673 434.413 571.673H416.457C415.344 571.673 414.398 570.864 414.226 569.765L410.566 546.275C410.352 544.905 411.411 543.669 412.795 543.669Z" fill="#FFB8B8"/>
<path d="M424.679 507.317L410.502 490.9C410.319 490.688 410.342 490.368 410.555 490.183C410.764 490 411.086 490.023 411.271 490.236L424.734 505.827L439.624 490.936H440.341V491.654L424.679 507.317Z" fill="#FBCAD2"/>
<path d="M424.68 538.913L410.886 524.746L410.896 524.028L411.613 524.04L424.734 537.512L440.011 524.011C440.221 523.827 440.541 523.846 440.726 524.056L440.682 524.774L424.68 538.913Z" fill="#FBCAD2"/>
<path d="M511.388 413.177C511.388 409.931 517.265 396.418 517.265 396.418C517.265 396.418 523.142 409.931 523.142 413.177C523.142 416.422 520.51 419.053 517.265 419.053C514.02 419.053 511.388 416.422 511.388 413.177Z" fill="#5955AF"/>
<path d="M517.559 481.885C517.428 481.885 517.321 481.779 517.321 481.648V411.71C517.321 411.578 517.428 411.471 517.559 411.471C517.691 411.471 517.798 411.578 517.798 411.71V481.648C517.798 481.779 517.691 481.885 517.559 481.885Z" fill="#FBCAD2"/>
<path d="M504.5 463.307C502.204 461.012 496.804 447.301 496.804 447.301C496.804 447.301 510.516 452.701 512.81 454.996C515.105 457.291 515.105 461.012 512.81 463.307C510.516 465.601 506.795 465.601 504.5 463.307Z" fill="#5955AF"/>
<path d="M504.5 437.257C502.204 434.963 496.804 421.251 496.804 421.251C496.804 421.251 510.516 426.653 512.81 428.947C515.105 431.242 515.105 434.963 512.81 437.257C510.516 439.553 506.795 439.553 504.5 437.257Z" fill="#5955AF"/>
<path d="M531.752 463.307C534.048 461.012 539.448 447.301 539.448 447.301C539.448 447.301 525.737 452.701 523.442 454.996C521.147 457.291 521.147 461.012 523.442 463.307C525.737 465.601 529.458 465.601 531.752 463.307Z" fill="#5955AF"/>
<path d="M531.752 437.257C534.048 434.963 539.448 421.251 539.448 421.251C539.448 421.251 525.737 426.653 523.442 428.947C521.147 431.242 521.147 434.963 523.442 437.257C525.737 439.553 529.458 439.553 531.752 437.257Z" fill="#5955AF"/>
<path d="M508.004 472.587H527.683C528.761 472.587 529.586 473.55 529.418 474.615L526.57 492.902C526.435 493.758 525.699 494.389 524.833 494.389H510.854C509.987 494.389 509.25 493.758 509.117 492.902L506.267 474.615C506.101 473.55 506.925 472.587 508.004 472.587Z" fill="#F0374A"/>
<path d="M517.263 444.056L506.336 431.403L506.36 431.067L506.697 431.09L517.289 443.355L528.999 431.644H529.338V431.982L517.263 444.056Z" fill="#FBCAD2"/>
<path d="M517.264 468.669L506.63 457.747L506.634 457.409L506.972 457.414L517.29 468.011L529.295 457.401L529.632 457.423L529.61 457.758L517.264 468.669Z" fill="#FBCAD2"/>
</svg>
