<svg width="32" height="32" viewBox="0 0 32 32" fill="none" xmlns="http://www.w3.org/2000/svg">
<path d="M4.81187 0H27.1881C29.8457 0 32 2.15434 32 4.81186V27.1881C32 29.8457 29.8457 32 27.1881 32H4.81187C2.15435 32 0 29.8457 0 27.1881V4.81186C0 2.15434 2.15435 0 4.81187 0Z" fill="#0037C1"/>
<path opacity="0.300429" fill-rule="evenodd" clip-rule="evenodd" d="M23.5455 1.36816H8.45438C4.4597 1.36816 1.24377 4.61049 1.24377 8.63794V23.3623C1.37308 26.5061 1.87045 24.5187 2.81717 21.0372C3.91747 16.9909 7.50079 13.4545 11.8646 10.8041C15.1954 8.78116 18.9236 7.48939 25.7099 7.3665C29.5586 7.29681 29.2188 2.37116 23.5455 1.36816Z" fill="url(#paint0_linear)"/>
<path d="M21.817 28.495H16.6545V15.8976H14.0753V11.5563H16.6545V8.94985C16.6545 5.40824 18.1109 3.30225 22.2486 3.30225H25.6933V7.64402H23.5401C21.9294 7.64402 21.8228 8.25072 21.8228 9.38299L21.817 11.5558H25.7177L25.2612 15.8971H21.817V28.495Z" fill="white"/>
<defs>
<linearGradient id="paint0_linear" x1="4.05851" y1="-3.20412" x2="8.20445" y2="8.88079" gradientUnits="userSpaceOnUse">
<stop stop-color="white"/>
<stop offset="1" stop-color="white" stop-opacity="0"/>
</linearGradient>
</defs>
</svg>
