<svg width="162" height="127" viewBox="0 0 162 127" fill="none" xmlns="http://www.w3.org/2000/svg">
    <path d="M0.0552686 104.94C0.0552686 104.94 -0.949145 82.0751 40.1051 88.0445C40.1051 88.0445 41.3595 53.7763 84.5441 56.1144C127.729 58.4526 123.926 78.1383 124.747 88.0088C124.747 88.0088 154.581 74.9135 157.986 102.722C160.423 122.626 144.144 126.4 131.355 126.369L21.5222 126.103C-2.16393 126.046 0.0552686 104.94 0.0552686 104.94Z" fill="white"/>
    <path d="M75.4395 35L161.915 33.7863C161.915 33.7863 163.968 23.6195 147.869 24.7672C147.869 24.7672 151.888 12.9827 138.933 15.9972C138.933 15.9972 144.981 0.96262 118.745 0.0444832C92.5087 -0.873661 89.0687 12.6591 91.5427 18.6465C91.5427 18.6465 78.0789 16.9154 75.2168 23.3424C72.3546 29.7694 75.4395 35 75.4395 35Z" fill="#208BFF"/>
    <path d="M14.0132 50.1474C14.0132 50.1474 13.7728 44.9394 23.5984 46.2991C23.5984 46.2991 23.8987 38.4937 34.2341 39.0263C44.5696 39.5589 43.6596 44.0427 43.8561 46.2909C43.8561 46.2909 50.9962 43.3082 51.8111 49.6421C52.3943 54.1758 48.4984 55.0353 45.4376 55.0283L19.151 54.9678C13.4821 54.9547 14.0132 50.1474 14.0132 50.1474Z" fill="white"/>
</svg>
