<svg width="217" height="161" viewBox="0 0 217 161" fill="none" xmlns="http://www.w3.org/2000/svg">
<g clip-path="url(#clip0)">
<path d="M103.75 57.5059H27.3756L13.1784 73.3201V57.5059H0V0H103.75V57.5059Z" fill="#E5E5E5"/>
<path d="M86.7384 16.8924H17.0124V20.0073H86.7384V16.8924Z" fill="white"/>
<path d="M86.7384 27.1956H17.0124V30.3105H86.7384V27.1956Z" fill="white"/>
<path d="M86.7384 37.4988H17.0124V40.6137H86.7384V37.4988Z" fill="white"/>
<path d="M13.3885 82.9995C14.8366 82.9995 16.0106 81.8255 16.0106 80.3773C16.0106 78.9292 14.8366 77.7552 13.3885 77.7552C11.9403 77.7552 10.7664 78.9292 10.7664 80.3773C10.7664 81.8255 11.9403 82.9995 13.3885 82.9995Z" fill="#E6E6E6"/>
<path d="M183.139 157.403H180.201L178.803 146.071H183.139L183.139 157.403Z" fill="#9F616A"/>
<path d="M183.888 160.251L174.415 160.25V160.131C174.415 159.153 174.803 158.215 175.495 157.523C176.186 156.832 177.124 156.444 178.102 156.443H178.102L183.888 156.444L183.888 160.251Z" fill="#2F2E41"/>
<path d="M154.504 157.17L151.718 156.236L153.995 145.047L158.106 146.426L154.504 157.17Z" fill="#9F616A"/>
<path d="M154.309 160.109L145.327 157.097L145.365 156.984C145.676 156.056 146.343 155.291 147.218 154.855C148.093 154.419 149.106 154.349 150.033 154.66L150.034 154.66L155.519 156.499L154.309 160.109Z" fill="#2F2E41"/>
<path d="M158.126 98.8372L151.764 152.657L158.004 153.183C158.004 153.183 167.819 100.268 170.845 106.537C173.871 112.805 177.579 152.009 177.579 152.009H183.772C183.772 152.009 185.36 90.8399 178.876 87.8138L158.126 98.8372Z" fill="#2F2E41"/>
<path d="M174.616 54.4973C175.217 51.088 172.94 47.8373 169.531 47.2367C166.121 46.6361 162.871 48.913 162.27 52.3223C161.669 55.7316 163.946 58.9823 167.356 59.5829C170.765 60.1835 174.016 57.9066 174.616 54.4973Z" fill="#9F616A"/>
<path d="M164.718 61.9846L172.715 62.633C172.715 62.633 179.092 62.7411 181.685 64.4703C184.279 66.1994 179.2 76.8986 179.2 76.8986C179.2 76.8986 177.879 81.1405 178.876 83.0587C182.108 89.2824 181.629 94.0752 181.629 94.0752C181.629 94.0752 174.985 95.595 163.529 98.621C163.529 98.621 156.397 101.431 156.613 99.9179C156.829 98.4049 158.99 81.1134 158.99 81.1134V63.1734L164.718 61.9846Z" fill="#3F3D56"/>
<path d="M178.708 52.7306C178.388 50.9456 177.671 48.4135 176.075 46.4936C176.125 46.4939 176.175 46.4961 176.225 46.4947C176.774 46.4786 177.399 46.3056 177.625 45.8056C177.698 45.6053 177.717 45.3891 177.678 45.1794C177.64 44.9697 177.546 44.774 177.406 44.6128C177.123 44.2943 176.785 44.0298 176.407 43.8322C176.792 44.066 177.337 44.2831 177.644 43.9538C177.723 43.8545 177.772 43.7348 177.786 43.6086C177.799 43.4824 177.776 43.355 177.719 43.2414C177.603 43.016 177.439 42.8183 177.239 42.6619C176.592 42.0893 175.883 41.5895 175.127 41.1715C174.541 40.8479 173.771 40.588 173.245 41.002C172.71 41.4237 172.796 42.2448 172.933 42.9124C172.633 42.7371 172.296 42.6353 171.949 42.6155C171.776 42.6105 171.606 42.6655 171.469 42.7711C171.331 42.8768 171.234 43.0266 171.194 43.1953C171.189 43.3285 171.219 43.4607 171.28 43.5791C171.341 43.6975 171.432 43.7981 171.543 43.8713C169.476 43.5314 166.836 43.917 163.46 45.4791C163.46 45.4791 160.186 46.5702 160.02 50.8794C160.003 51.5685 160.08 52.2569 160.247 52.9255C160.432 53.7067 161.088 57.5389 160.301 59.0876L164.243 60.4922L164.288 58.1309C161.224 53.7082 162.738 52.0852 163.931 49.4252C163.933 49.4204 163.936 49.4162 163.94 49.4131C163.944 49.41 163.949 49.4082 163.955 49.4078C163.96 49.4074 163.965 49.4085 163.97 49.4109C163.974 49.4133 163.978 49.417 163.981 49.4214C164.201 49.7997 165.046 51.0964 167.954 51.0964L166.83 49.973C166.83 49.973 171.773 51.9952 173.571 51.9952C173.571 51.9952 174.919 52.8939 173.571 54.2421C172.223 55.5903 169.272 57.5746 170.845 60.0462C172.418 62.5178 172.282 63.3947 172.282 63.3947L175.878 61.3724C175.878 61.3724 178.073 57.0279 178.463 55.7486C178.783 54.7763 178.867 53.7418 178.708 52.7306Z" fill="#2F2E41"/>
<path d="M135.51 101.441H207.029V141.082H197.944V151.983L188.158 141.082H135.51V101.441Z" fill="#F50057"/>
<path d="M195.302 113.086H147.237V115.233H195.302V113.086Z" fill="white"/>
<path d="M195.302 120.188H147.237V122.335H195.302V120.188Z" fill="white"/>
<path d="M195.302 127.29H147.237V129.437H195.302V127.29Z" fill="white"/>
<path d="M182.469 76.0409L178.274 77.0606L178.242 85.5504L173.524 101.835C173.146 102.133 172.858 102.53 172.689 102.981C172.521 103.432 172.48 103.921 172.569 104.394C172.659 104.867 172.877 105.306 173.199 105.664C173.52 106.022 173.934 106.285 174.395 106.425C174.856 106.564 175.346 106.575 175.812 106.456C176.279 106.336 176.704 106.091 177.041 105.748C177.378 105.404 177.614 104.974 177.725 104.506C177.835 104.037 177.815 103.547 177.666 103.089L183.306 86.2311L182.469 76.0409Z" fill="#9F616A"/>
<path d="M154.549 75.8625L159.582 77.3003L159.614 85.7901L164.332 102.075C164.709 102.373 164.998 102.77 165.166 103.221C165.335 103.672 165.376 104.16 165.286 104.633C165.197 105.106 164.979 105.546 164.657 105.904C164.335 106.262 163.922 106.525 163.461 106.665C163 106.804 162.51 106.815 162.043 106.695C161.577 106.576 161.152 106.331 160.815 105.987C160.478 105.644 160.241 105.214 160.131 104.745C160.021 104.277 160.041 103.787 160.19 103.329L154.549 86.4709V75.8625Z" fill="#9F616A"/>
<path d="M176.174 63.6056L177.213 63.2666C177.797 63.0763 178.432 63.1204 178.984 63.3895C178.984 63.3895 182.01 63.6056 182.442 65.7671C182.874 67.9285 183.926 86.8207 183.926 86.8207L177.516 84.7812L176.174 63.6056Z" fill="#3F3D56"/>
<path d="M161.584 63.6056L159.744 63.5131L159.161 63.2217C159.161 63.2217 155.748 63.6056 155.316 65.7671C154.883 67.9285 153.626 87.4034 153.626 87.4034L160.035 85.6553L161.584 63.6056Z" fill="#3F3D56"/>
<path d="M55.8729 140.181L58.911 137.531C58.7811 135.627 58.5439 133.732 58.2005 131.855L56.5239 132.565L58.0794 131.208C57.6318 128.891 57.1887 127.385 57.1887 127.385C57.1887 127.385 51.0588 132.829 47.6286 139.469L49.1334 144.419L46.835 141.146C46.4932 141.936 46.2014 142.747 45.9614 143.573C43.5696 151.917 44.3556 159.462 47.7171 160.426C51.0785 161.389 55.7425 155.407 58.1343 147.063C58.8322 144.39 59.1163 141.627 58.9767 138.868L55.8729 140.181Z" fill="#F1F1F1"/>
<path d="M63.9181 146.669L67.8888 145.97C68.7616 144.274 69.538 142.529 70.2142 140.745L68.4123 140.485L70.4453 140.128C71.2597 137.913 71.6587 136.395 71.6587 136.395C71.6587 136.395 63.5976 137.886 57.2286 141.798L55.9582 146.813L55.6826 142.823C54.9816 143.323 54.3127 143.866 53.6799 144.45C47.3196 150.356 44.0925 157.221 46.4719 159.783C48.8514 162.346 55.9363 159.635 62.2966 153.729C64.2756 151.802 65.9474 149.583 67.2539 147.149L63.9181 146.669Z" fill="#F1F1F1"/>
<path d="M216.527 160.531H36.4764C36.3991 160.531 36.325 160.5 36.2704 160.446C36.2157 160.391 36.1851 160.317 36.1851 160.24C36.1851 160.162 36.2157 160.088 36.2704 160.034C36.325 159.979 36.3991 159.948 36.4764 159.948H216.527C216.605 159.948 216.679 159.979 216.734 160.034C216.788 160.088 216.819 160.162 216.819 160.24C216.819 160.317 216.788 160.391 216.734 160.446C216.679 160.5 216.605 160.531 216.527 160.531Z" fill="#CBCBCB"/>
</g>
<defs>
<clipPath id="clip0">
<rect width="216.819" height="160.749" fill="white"/>
</clipPath>
</defs>
</svg>
