<svg width="32" height="36" viewBox="0 0 32 36" fill="none" xmlns="http://www.w3.org/2000/svg">
<path d="M21.894 26.9473C22.2356 24.1289 20.4281 22.3301 15.6511 20.8008C13.3384 20.0098 12.2464 18.9727 12.2727 17.543C12.369 15.9609 13.8378 14.8066 15.7883 14.7686C17.1403 14.7949 18.6411 15.126 20.0982 16.1045C20.2705 16.2129 20.3931 16.1982 20.4924 16.0459C20.6267 15.8291 20.9625 15.3047 21.0764 15.1172C21.1523 14.9941 21.1669 14.8359 20.9742 14.6953C20.6968 14.4902 19.923 14.0713 19.5054 13.8984C18.3725 13.4238 17.1023 13.125 15.7503 13.1279C12.8975 13.1396 10.6491 14.9502 10.4593 17.3672C10.3367 19.1104 11.1981 20.5283 13.0464 21.6064C13.4377 21.835 15.5576 22.6816 16.4015 22.9453C19.0528 23.7744 20.4311 25.2598 20.1069 26.9912C19.812 28.5615 18.1652 29.5781 15.8934 29.6074C14.0918 29.5371 12.4741 28.8018 11.2156 27.8203C11.1835 27.7969 11.0258 27.6738 11.0054 27.6562C10.8506 27.5332 10.6813 27.542 10.5761 27.7002C10.5002 27.8174 10.0155 28.5205 9.89287 28.7051C9.779 28.8662 9.84031 28.957 9.96003 29.0566C10.4856 29.4961 11.1806 29.9766 11.6565 30.2197C12.9618 30.8877 14.378 31.2539 15.8847 31.3096C16.8541 31.374 18.0746 31.166 18.9886 30.7793C20.6238 30.0791 21.6808 28.6875 21.894 26.9473ZM15.9985 2.10352C12.9063 2.10352 10.3863 5.02734 10.2696 8.68652H21.7304C21.6107 5.02734 19.0908 2.10352 15.9985 2.10352ZM27.7368 36H27.6171L4.01789 35.9971C2.4119 35.9355 1.23223 34.6318 1.07163 33.0117L1.05703 32.7188L0.00291997 9.42773C0 9.41016 0 9.39258 0 9.375C0 9 0.300757 8.69238 0.671594 8.68652H8.11169C8.29565 3.85254 11.7558 0 15.9985 0C20.2413 0 23.7044 3.85254 23.8854 8.68652H31.3021H31.3138C31.6934 8.68652 32 8.99414 32 9.375C32 9.38672 32 9.39844 32 9.41016L30.8437 32.792L30.832 32.9912C30.6948 34.6318 29.372 35.9561 27.7368 36Z" fill="#EE4D2D"/>
</svg>
