<svg width="448" height="353" viewBox="0 0 448 353" fill="none" xmlns="http://www.w3.org/2000/svg">
    <path d="M18.4998 63.9999C25.4998 16.4999 127.031 -26.0038 180 21.4999C243 77.9999 247.6 35.3999 286 54.9999C334 79.4999 278.5 131.5 399.5 131.5C459.274 131.5 449 198.5 444 261.5C439 324.5 402 347.5 312 331C222 314.5 143.5 364 84.5 350.5C25.5 337 -11.5002 303 3.9998 238C19.4998 173 11.4998 111.5 18.4998 63.9999Z" fill="#1481F8"/>
    <path d="M278.311 156.034C277.87 158.353 277.342 160.649 276.727 162.922C276.66 163.186 276.585 163.446 276.511 163.709H267.947C267.218 163.71 266.518 164.001 266.003 164.518C265.487 165.034 265.197 165.735 265.196 166.466V190.93C264.937 191.414 264.673 191.895 264.41 192.375C263.05 194.856 261.635 197.31 260.189 199.732C236.606 239.096 203.715 272.036 164.418 295.645L166.745 290.384C165.892 290.325 165.035 290.266 164.183 290.206C145.613 288.934 126.981 287.525 108.848 283.342C89.8776 278.967 71.3202 271.378 56.4529 258.796C41.5815 246.21 30.6797 228.236 29.1666 208.789C28.6621 202.106 29.3366 195.386 31.1593 188.937C34.6451 176.524 42.2616 165.356 53.2499 158.747C70.5106 148.37 93.0257 150.485 111.222 159.118C129.414 167.746 144.222 182.03 158.681 196.065C144.083 170.98 123.757 149.721 99.3726 134.032C91.2925 128.849 82.7172 124.233 75.8476 117.519C68.9817 110.808 63.9159 101.4 65.1304 91.8658C66.5097 81.0517 75.3485 72.8446 84.2027 66.516C87.7397 63.9877 91.3907 61.5894 95.1557 59.384C105.779 53.146 117.27 48.4399 129.406 46.6953C145.845 44.3285 163.601 47.9201 176.205 58.7579C190.404 70.9701 196.228 90.6647 195.674 109.505C204.422 96.7609 217.914 87.0062 233.151 86.5927C248.969 86.1673 264.005 96.182 271.928 109.91C279.847 123.635 281.27 140.459 278.311 156.034Z" fill="#E6E6E6"/>
    <path d="M178.229 208.961C187.494 208.143 196.053 207.188 205.031 204.642C213.733 202.175 222.107 198.044 228.302 191.299C234.965 184.044 238.562 174.623 241.1 165.244C242.515 160.015 243.678 154.712 244.775 149.408C245.965 143.654 247.022 137.873 247.947 132.068C249.788 120.511 251.103 108.886 251.89 97.1938C251.985 95.7745 252.073 94.3547 252.152 92.9344C252.201 92.0582 250.841 92.061 250.792 92.9344C250.145 104.46 248.981 115.941 247.3 127.376C245.642 138.612 243.519 149.799 240.827 160.833C238.546 170.181 235.592 179.674 229.742 187.456C224.256 194.753 216.332 199.521 207.776 202.372C199.07 205.274 189.89 206.432 180.793 207.293C179.677 207.399 179.346 207.5 178.229 207.598C177.364 207.674 177.356 209.038 178.229 208.961L178.229 208.961Z" fill="white"/>
    <path d="M31.9444 189.942C43.6337 190.592 55.2041 192.635 66.411 196.028C77.6226 199.415 88.3967 204.114 98.51 210.029C108.282 215.749 117.354 222.594 125.541 230.423C133.486 238.027 140.568 246.487 146.656 255.652C152.771 264.839 157.839 274.685 161.765 285.004C162.244 286.267 162.705 287.536 163.148 288.812C163.435 289.635 164.749 289.281 164.46 288.45C160.787 277.913 155.945 267.822 150.025 258.368C144.107 248.912 137.16 240.144 129.314 232.222C121.342 224.177 112.469 217.082 102.873 211.077C82.7228 198.5 59.8833 190.891 36.2294 188.876C34.8026 188.756 33.3742 188.657 31.9444 188.58C31.0699 188.532 31.0726 189.895 31.9444 189.942L31.9444 189.942Z" fill="white"/>
    <path d="M95.523 60.9815C102.997 63.3634 110.081 66.8324 116.549 71.2775C123.158 75.8506 129.186 81.2146 134.498 87.2507C140.097 93.6004 145.074 100.474 149.362 107.777C153.91 115.487 157.86 123.536 161.179 131.853C164.597 140.391 167.471 149.137 169.785 158.039C172.138 167.047 173.975 176.182 175.288 185.4C176.595 194.519 177.386 203.706 177.657 212.915C177.931 221.721 177.671 230.536 176.879 239.31C176.156 247.497 174.834 255.619 172.925 263.611C171.229 270.83 168.84 277.867 165.79 284.624C165.083 286.157 164.333 287.67 163.541 289.161C163.129 289.934 164.303 290.624 164.715 289.848C168.085 283.395 170.777 276.607 172.745 269.595C174.954 261.789 176.555 253.823 177.534 245.769C178.62 237.031 179.148 228.233 179.117 219.427C179.097 210.177 178.548 200.935 177.471 191.747C176.394 182.445 174.794 173.211 172.68 164.089C170.571 154.952 167.896 145.955 164.67 137.152C161.561 128.63 157.839 120.345 153.532 112.363C149.43 104.747 144.65 97.5169 139.25 90.7622C134.121 84.3307 128.266 78.5165 121.802 73.4358C115.569 68.5514 108.681 64.57 101.34 61.6086C99.5464 60.8932 97.7279 60.2462 95.8845 59.6676C95.0478 59.4038 94.6898 60.7189 95.523 60.9815H95.523Z" fill="white"/>
    <path d="M176.181 298C229.901 298 273.449 296.237 273.449 294.062C273.449 291.887 229.901 290.124 176.181 290.124C122.461 290.124 78.9131 291.887 78.9131 294.062C78.9131 296.237 122.461 298 176.181 298Z" fill="#E6E6E6"/>
    <path d="M262.119 170.715C262.07 170.927 262.039 171.143 262.025 171.361L245.142 181.12L241.039 178.753L236.664 184.492L245.443 190.762L264.703 175.536C265.488 175.827 266.344 175.872 267.155 175.664C267.967 175.456 268.696 175.006 269.246 174.373C269.796 173.74 270.14 172.954 270.234 172.12C270.327 171.285 270.165 170.443 269.768 169.703C269.372 168.964 268.76 168.363 268.015 167.98C267.269 167.598 266.425 167.452 265.595 167.561C264.764 167.671 263.987 168.032 263.366 168.595C262.745 169.158 262.31 169.898 262.119 170.715Z" fill="#FFB8B8"/>
    <path d="M223.67 176.703L236.963 186.197L242.908 178.727L229.986 168.337C229.43 167.89 228.789 167.562 228.102 167.372C227.415 167.182 226.696 167.134 225.99 167.232C225.284 167.33 224.606 167.572 223.996 167.942C223.386 168.312 222.859 168.803 222.445 169.384C221.639 170.518 221.315 171.925 221.545 173.298C221.775 174.67 222.539 175.895 223.67 176.703Z" fill="#F50057"/>
    <path d="M196.23 285.028L200.891 286.252L207.82 268.82L200.941 267.014L196.23 285.028Z" fill="#FFB8B8"/>
    <path d="M208.746 292.949L194.097 289.103L195.58 283.431L204.569 285.792C206.07 286.186 207.353 287.161 208.137 288.503C208.92 289.846 209.139 291.445 208.746 292.949Z" fill="#2F2E41"/>
    <path d="M237.661 288.354L242.404 287.505L241.394 268.768L234.394 270.021L237.661 288.354Z" fill="#FFB8B8"/>
    <path d="M252.338 290.281L237.432 292.949L236.403 287.178L245.55 285.54C246.306 285.405 247.082 285.42 247.832 285.585C248.583 285.75 249.294 286.062 249.924 286.502C250.554 286.942 251.092 287.502 251.506 288.151C251.921 288.799 252.203 289.523 252.338 290.281Z" fill="#2F2E41"/>
    <path d="M228.322 150.561C229.491 150.846 230.442 152.04 231.013 153.422C231.539 154.874 231.896 156.383 232.075 157.917C232.524 160.775 232.955 163.869 232.027 166.516C230.939 169.618 228.041 171.243 225.527 170.479C223.013 169.716 221.014 166.85 220.331 163.55C219.709 160.217 220.109 156.773 221.48 153.672C222.194 152.043 223.178 150.54 224.486 149.804C225.128 149.416 225.893 149.285 226.627 149.438C227.361 149.591 228.01 150.017 228.443 150.631" fill="#2F2E41"/>
    <path d="M234.935 202.303L243.965 283.348L236.507 286.186L222.752 231.839L203.601 281.53L195.438 281.984C195.438 281.984 206.639 204.666 214.939 202.909L234.935 202.303Z" fill="#2F2E41"/>
    <path d="M227.35 160.904C232.681 160.904 237.003 156.573 237.003 151.231C237.003 145.889 232.681 141.559 227.35 141.559C222.019 141.559 217.698 145.889 217.698 151.231C217.698 156.573 222.019 160.904 227.35 160.904Z" fill="#FFB8B8"/>
    <path d="M231.493 164.962L221.062 163.598C221.062 163.598 214.259 171.778 214.713 185.867C215.166 199.955 213.579 204.272 213.579 204.272L235.328 204.666C232.184 200.334 245.334 175.454 231.493 164.962Z" fill="#F50057"/>
    <path d="M237.096 206.635C236.879 206.637 236.662 206.656 236.447 206.691L223.103 192.457L224.464 187.912L217.887 184.958L213.806 194.956L233.005 210.259C232.901 211.092 233.054 211.937 233.441 212.681C233.829 213.425 234.433 214.033 235.174 214.425C235.915 214.816 236.757 214.973 237.589 214.873C238.421 214.773 239.202 214.422 239.83 213.866C240.457 213.31 240.901 212.576 241.102 211.761C241.303 210.946 241.252 210.089 240.955 209.304C240.659 208.52 240.131 207.844 239.441 207.367C238.752 206.89 237.934 206.635 237.096 206.635Z" fill="#FFB8B8"/>
    <path d="M222.48 170.5L216.3 185.639L224.917 189.729L232.053 174.747C232.36 174.102 232.532 173.401 232.56 172.688C232.587 171.974 232.469 171.262 232.212 170.596C231.955 169.93 231.565 169.323 231.066 168.813C230.567 168.303 229.969 167.9 229.31 167.63C228.673 167.369 227.992 167.236 227.304 167.239C226.616 167.242 225.936 167.381 225.302 167.648C224.668 167.914 224.092 168.303 223.608 168.792C223.124 169.282 222.741 169.862 222.48 170.5Z" fill="#F50057"/>
    <path d="M224.825 160.025C226.338 159.151 226.499 157.042 226.293 155.304C226.088 153.567 225.745 151.63 226.764 150.209C227.98 148.513 230.424 148.48 232.507 148.424C234.591 148.369 237.127 147.758 237.667 145.741C238.024 144.408 237.261 142.978 236.166 142.141C235.071 141.305 233.701 140.935 232.369 140.583C229.391 139.797 226.315 139.004 223.265 139.436C220.244 139.864 217.513 141.467 215.662 143.898C213.811 146.328 212.99 149.391 213.376 152.424C213.87 156.304 214.585 157.998 214.116 159.708C213.24 162.894 209.466 164.941 209.391 168.245C209.332 170.829 211.61 172.823 213.832 174.135C215.595 175.175 217.498 176.059 219.529 176.302C221.561 176.546 223.748 176.079 225.262 174.7C227.213 172.92 227.696 169.947 227.137 167.363C226.577 164.778 225.141 162.483 223.721 160.255" fill="#2F2E41"/>
    <path d="M407.463 162.922H267.947C267.01 162.923 266.111 163.297 265.448 163.962C264.785 164.626 264.412 165.527 264.41 166.466V256.256C264.412 257.195 264.785 258.096 265.448 258.76C266.111 259.425 267.01 259.799 267.947 259.8H407.463C408.401 259.799 409.3 259.425 409.963 258.76C410.626 258.096 410.999 257.195 411 256.256V166.466C410.999 165.527 410.626 164.626 409.963 163.962C409.3 163.297 408.401 162.923 407.463 162.922ZM410.214 256.256C410.213 256.987 409.923 257.687 409.407 258.204C408.892 258.721 408.192 259.012 407.463 259.013H267.947C267.218 259.012 266.519 258.721 266.003 258.204C265.487 257.687 265.197 256.987 265.196 256.256V166.466C265.197 165.735 265.487 165.035 266.003 164.518C266.519 164.001 267.218 163.71 267.947 163.71H407.463C408.192 163.71 408.892 164.001 409.407 164.518C409.923 165.035 410.213 165.735 410.214 166.466V256.256Z" fill="#3F3D56"/>
    <path d="M297.727 207.618H275.719C274.833 207.617 273.984 207.264 273.358 206.636C272.732 206.009 272.379 205.158 272.378 204.271V182.217C272.379 181.33 272.732 180.479 273.358 179.851C273.984 179.224 274.833 178.871 275.719 178.87H297.727C298.613 178.871 299.462 179.224 300.088 179.851C300.714 180.479 301.067 181.33 301.068 182.217V204.271C301.067 205.158 300.714 206.009 300.088 206.636C299.462 207.264 298.613 207.617 297.727 207.618Z" fill="#F50057"/>
    <path d="M400.197 231.054H275.222C274.544 231.054 273.895 230.784 273.416 230.304C272.937 229.824 272.667 229.173 272.667 228.494C272.667 227.815 272.937 227.164 273.416 226.684C273.895 226.204 274.544 225.934 275.222 225.934H400.197C400.874 225.934 401.524 226.204 402.003 226.684C402.482 227.164 402.751 227.815 402.751 228.494C402.751 229.173 402.482 229.824 402.003 230.304C401.524 230.784 400.874 231.054 400.197 231.054Z" fill="#CCCCCC"/>
    <path d="M400.281 218.648H275.306C274.628 218.648 273.979 218.379 273.5 217.899C273.021 217.419 272.751 216.767 272.751 216.089C272.751 215.41 273.021 214.759 273.5 214.279C273.979 213.799 274.628 213.529 275.306 213.529H400.281C400.958 213.529 401.608 213.799 402.087 214.279C402.566 214.759 402.835 215.41 402.835 216.089C402.835 216.767 402.566 217.419 402.087 217.899C401.608 218.379 400.958 218.648 400.281 218.648Z" fill="#CCCCCC"/>
    <path d="M338.579 201.71H320.108C319.431 201.71 318.781 201.441 318.302 200.961C317.823 200.481 317.554 199.83 317.554 199.151C317.554 198.472 317.823 197.821 318.302 197.341C318.781 196.861 319.431 196.591 320.108 196.591H338.579C339.257 196.591 339.907 196.861 340.386 197.341C340.865 197.821 341.134 198.472 341.134 199.151C341.134 199.83 340.865 200.481 340.386 200.961C339.907 201.441 339.257 201.71 338.579 201.71Z" fill="#CCCCCC"/>
    <path d="M400.281 189.112H320.108C319.431 189.112 318.781 188.843 318.302 188.363C317.823 187.882 317.554 187.231 317.554 186.552C317.554 185.874 317.823 185.222 318.302 184.742C318.781 184.262 319.431 183.993 320.108 183.993H400.281C400.958 183.993 401.608 184.262 402.087 184.742C402.566 185.222 402.835 185.874 402.835 186.552C402.835 187.231 402.566 187.882 402.087 188.363C401.608 188.843 400.958 189.112 400.281 189.112Z" fill="#CCCCCC"/>
    <path d="M335.435 243.656H275.222C274.544 243.656 273.895 243.386 273.416 242.906C272.937 242.426 272.667 241.775 272.667 241.096C272.667 240.417 272.937 239.766 273.416 239.286C273.895 238.806 274.544 238.536 275.222 238.536H335.435C336.113 238.536 336.763 238.806 337.242 239.286C337.721 239.766 337.99 240.417 337.99 241.096C337.99 241.775 337.721 242.426 337.242 242.906C336.763 243.386 336.113 243.656 335.435 243.656Z" fill="#CCCCCC"/>
</svg>
