<svg width="22" height="22" viewBox="0 0 22 22" fill="none" xmlns="http://www.w3.org/2000/svg">
<path d="M0 22L1.892 16.3244C0.931966 14.7097 0.37931 12.8252 0.37931 10.8103C0.37931 4.84 5.21931 0 11.1897 0C17.16 0 22 4.84 22 10.8103C22 16.7807 17.16 21.6207 11.1897 21.6207C9.37314 21.6207 7.66245 21.1704 6.16 20.3792L0 22Z" fill="#2CB742"/>
<path d="M18.0868 14.4081C17.5876 13.4648 15.7468 12.386 15.7468 12.386C15.3303 12.1486 14.8277 12.122 14.5903 12.5453C14.5903 12.5453 13.9921 13.2626 13.84 13.3658C13.1451 13.8365 12.5014 13.8183 11.8517 13.1685L10.3416 11.6585L8.83158 10.1485C8.18182 9.49869 8.16362 8.855 8.63434 8.16011C8.73751 8.008 9.45479 7.40983 9.45479 7.40983C9.8781 7.172 9.85155 6.6698 9.6141 6.25331C9.6141 6.25331 8.53534 4.41252 7.592 3.91335C7.19069 3.70093 6.69796 3.77528 6.37707 4.09617L5.71024 4.763C3.59482 6.87842 4.63641 9.26655 6.75182 11.382L8.68517 13.3153L10.6185 15.2487C12.7339 17.3641 15.1221 18.4057 17.2375 16.2902L17.9043 15.6234C18.2252 15.3018 18.2992 14.809 18.0868 14.4081Z" fill="white"/>
</svg>
